<svg xmlns="http://www.w3.org/2000/svg" viewBox="0 0 79 79"><defs><style>.cls-1{fill:#222221;}</style></defs><g id="Warstwa_2" data-name="Warstwa 2"><g id="Layer_1" data-name="Layer 1"><path class="cls-1" d="M39.5,0C28.769,0,27.43.049,23.216.237a29.135,29.135,0,0,0-9.589,1.837,19.35,19.35,0,0,0-7,4.555,19.286,19.286,0,0,0-4.555,7A29.031,29.031,0,0,0,.237,23.216C.04,27.43,0,28.769,0,39.5S.049,51.57.237,55.784a29.145,29.145,0,0,0,1.837,9.588,19.374,19.374,0,0,0,4.555,7,19.331,19.331,0,0,0,7,4.555,29.147,29.147,0,0,0,9.589,1.837c4.214.2,5.553.237,16.284.237s12.07-.049,16.284-.237a29.223,29.223,0,0,0,9.588-1.837A20.176,20.176,0,0,0,76.926,65.372a29.119,29.119,0,0,0,1.837-9.588c.2-4.214.237-5.553.237-16.284s-.049-12.07-.237-16.284a29.213,29.213,0,0,0-1.837-9.589,19.409,19.409,0,0,0-4.555-7,19.258,19.258,0,0,0-7-4.555A29.041,29.041,0,0,0,55.784.237C51.57.04,50.231,0,39.5,0Zm0,7.11c10.543,0,11.8.053,15.965.234A21.744,21.744,0,0,1,62.8,8.71a13,13,0,0,1,7.5,7.495,21.819,21.819,0,0,1,1.359,7.33c.188,4.168.23,5.419.23,15.965s-.049,11.8-.243,15.965a22.233,22.233,0,0,1-1.386,7.33A12.54,12.54,0,0,1,67.3,67.344a12.339,12.339,0,0,1-4.543,2.95A21.974,21.974,0,0,1,55.4,71.653c-4.194.188-5.429.23-15.995.23s-11.8-.049-15.994-.243a22.4,22.4,0,0,1-7.36-1.386A12.243,12.243,0,0,1,11.508,67.3a11.988,11.988,0,0,1-2.963-4.543A22.394,22.394,0,0,1,7.163,55.4c-.148-4.148-.2-5.429-.2-15.945s.053-11.8.2-16A22.385,22.385,0,0,1,8.545,16.1a11.709,11.709,0,0,1,2.963-4.546A11.681,11.681,0,0,1,16.047,8.6a21.827,21.827,0,0,1,7.311-1.386c4.2-.148,5.431-.2,15.994-.2Zm0,12.107a20.284,20.284,0,1,0,14.342,5.941A20.269,20.269,0,0,0,39.5,19.217Zm0,33.45A13.167,13.167,0,1,1,52.667,39.5,13.163,13.163,0,0,1,39.5,52.667Zm25.826-34.25a4.739,4.739,0,1,1-1.388-3.352A4.739,4.739,0,0,1,65.326,18.417Z"/></g></g></svg>