<svg xmlns="http://www.w3.org/2000/svg" viewBox="0 0 827.566 332.917"><defs><style>.cls-1{fill:#222221;}</style></defs><g id="Warstwa_2" data-name="Warstwa 2"><g id="Layer_1" data-name="Layer 1"><path class="cls-1" d="M821.329,230.149c-5.216-10.71-12.908-20.239-19.726-30.129-12.557-18.216-20.1-36.366-11.588-59.716,2.7-7.386-2.892-23.981-9.411-27.448-23.237-12.357-24.936-28.109-17.978-50.95,2.373-7.787-4.151-25.747-9.919-27.389C708.6,21.962,663.386,3.484,617.525,21.65,582,35.721,547.712,37.989,512.118,27.312c-34.3-10.289-68.41-11.244-103.919-6.508-18.28,2.439-39.465.026-56.33-7.221C308.563-5.025,268.51-6.185,228.111,20.62c-7.7,5.11-20.62,5.045-30.543,3.52-21.183-3.255-42.063-13.371-62.921-12.97C70.333,12.409,20.422,49.18,5.48,101.822-20.059,191.791,46.968,308.839,138.1,331.307c11.382,2.806,28.694,2.317,36.391-4.467,27.517-24.25,57.44-20.657,89.008-15.017,44.668,7.981,87.961,9.971,125.933-23.269,6-5.254,21.7-2.065,31.955.746,27.888,7.647,54.744,21.881,82.946,24.992,58.449,6.446,118.381-18.477,176.485,6.965,2.326,1.019,5.485.13,8.25.159q41.418-3.12,82.847-6.3c1.842-.142,3.7-.23,5.52-.528C817.19,308.108,839.091,266.623,821.329,230.149ZM781.048,268a18.9,18.9,0,0,1-6.3,4.067c-36.566,16.569-77.029,2.27-115.071.544-28.047-1.273-57.607-5.087-84.032,1.764-44.694,11.588-86.226,9.924-126.149-11.728-37.238-20.2-69.683-18.838-105.9,5.77-16.525,11.227-44.1,12.954-65.019,9.363-37.463-6.431-72.431-7.476-108.794,5.934-13.806,5.093-33.588,4-47.178-2.073C47.58,248.13,19.553,136.5,67.716,69.54c18.172-25.263,37.424-32,67.51-23.153,14.149,4.158,27.955,9.57,42.215,13.254,25.48,6.582,47.985.811,71.359-12.3,12.919-7.25,32.674-6.733,48.162-3.681,15.766,3.107,30.166,13.448,45.007,20.934,25.511,12.867,47.693,31.031,59.776,57.482,2.227,4.873,4.122,9.977,7.361,14.244a27.271,27.271,0,0,0,10.264,8.238,11.022,11.022,0,0,0,4.618,1.207,13.573,13.573,0,0,0,4.8-1.23,417.56,417.56,0,0,0,38.866-17.606c12.122-6.273,24.554-12.136,34.787-21.377,2.885-2.606,5.678-5.649,6.488-9.451a7.4,7.4,0,0,0-1.979-7.15c-3.637-3.731-10.944-5.2-15.294-6.843-9.407-3.553-19.03-6.749-28.987-8.337-13.279-2.118-26.835-.584-40.28-.764-6.435-.087-21.555-3.909-17.733-13.515,3.363-8.452,21.081-7.679,27.85-7.75C473.8,51.3,506.03,62.8,506.03,62.8c29.477,18.363,54.174,16.369,82.179-1.408,11.88-7.541,21.412-10.668,29.015-9.584.135-.044.262-.1.4-.14a44.613,44.613,0,0,1,8.21-1.269c6.677-.737,13.289-1.274,20.007-1.4a251.565,251.565,0,0,0,26.831-2.114c10.98-1.367,26.434-3.537,36.956,2.329a25.661,25.661,0,0,1,10.925,4.2,4.315,4.315,0,0,1,1.853,4.436,4.277,4.277,0,0,1,.329,5.86c-9.166,10.942-23.92,11.625-37.136,11.454A188.675,188.675,0,0,0,638.788,80c4.154,18.563,2.386,43.293,19.247,54.016,15.75,10.017,45.721,6.387,63.7,6.039,8.606-.166,22.507,3.56,24.986,9.346,6.413,14.969,3.909,30.03-17.653,31.258a243.474,243.474,0,0,1-30.5-.128C676.426,179,657.141,179.785,657,210.14c-.148,32.944,9.8,45.786,40.489,46.611,15.577.419,31.159.393,46.743.309,4.655-.026,37.748-2.758,39.3,5.455C783.811,263.971,783.093,265.773,781.048,268Z"/><path class="cls-1" d="M312.4,74.871c-28.5-7.395-57,6.042-69.595,32.872-17.247,36.726,4.029,81.224,41.972,94.708,33.919,12.054,87.09-4.813,99.362-41.335q.714-2.124,1.209-4.219C394.893,116.606,345.551,83.473,312.4,74.871Z"/><path class="cls-1" d="M148.1,70.592c-54.72.507-83.548,23.12-82.374,64.614,1.086,38.4,40.429,71.5,85.022,71.536,39.253.032,68.79-27.756,68.766-64.7C219.49,100.908,188.814,70.215,148.1,70.592Z"/><path class="cls-1" d="M574.487,134.234c-7.8-8.374-24.555-15.332-35.827-9.905-6.211,2.991-12.437,8.839-17.9,13.1-6.132,4.778-12.062,9.811-17.835,15.015-6.013,5.42-11.853,11.028-17.582,16.747-4.512,4.5-10.848,8.426-13.093,14.687-3.021,8.425-.621,18.77,7.1,23.824,4.481,2.934,9.968,3.781,15.267,4.56,18.359,2.7,36.63,5.852,55.044,8.206,15.488,1.98,33.971,6.628,49.546,5.139a11.665,11.665,0,0,0,3.391-.84,8.282,8.282,0,0,0,4.118-3.489,12.035,12.035,0,0,0,1.158-6.044c-.23-23.369-14.031-46.209-24.055-66.5C581.264,143.556,578.418,138.452,574.487,134.234Z"/></g></g></svg>