<svg xmlns="http://www.w3.org/2000/svg" viewBox="0 0 404.007 162.526"><defs><style>.cls-1{fill:#a8b729;}</style></defs><g id="Warstwa_2" data-name="Warstwa 2"><g id="Layer_1" data-name="Layer 1"><path class="cls-1" d="M400.962,112.356c-2.546-5.229-6.3-9.881-9.63-14.709-6.13-8.893-9.814-17.753-5.657-29.153,1.316-3.605-1.412-11.706-4.594-13.4-11.344-6.033-12.174-13.723-8.777-24.873,1.158-3.8-2.026-12.57-4.842-13.371-21.534-6.13-43.6-15.15-65.994-6.282-17.344,6.869-34.082,7.977-51.459,2.764-16.744-5.022-33.4-5.489-50.731-3.177a54.515,54.515,0,0,1-27.5-3.525c-21.142-9.084-40.695-9.65-60.417,3.436-3.76,2.494-10.067,2.463-14.911,1.718C86.109,10.2,75.915,5.257,65.733,5.453c-31.4.6-55.763,18.556-63.058,44.255C-9.792,93.63,22.929,150.771,67.417,161.74c5.557,1.37,14.008,1.131,17.766-2.181,13.433-11.839,28.041-10.084,43.452-7.331,21.807,3.9,42.942,4.868,61.479-11.36,2.93-2.564,10.6-1.008,15.6.365,13.615,3.733,26.726,10.682,40.494,12.2,28.533,3.147,57.792-9.02,86.157,3.4,1.136.5,2.678.064,4.028.078q20.219-1.523,40.445-3.077c.9-.069,1.806-.113,2.694-.258A28.655,28.655,0,0,0,400.962,112.356ZM381.3,130.832a9.217,9.217,0,0,1-3.078,1.985c-17.851,8.089-37.605,1.108-56.176.266-13.693-.622-28.123-2.483-41.023.861-21.82,5.657-42.1,4.845-61.585-5.726-18.179-9.86-34.018-9.2-51.7,2.817-8.068,5.481-21.53,6.324-31.742,4.571-18.289-3.139-35.36-3.65-53.111,2.9-6.74,2.486-16.4,1.951-23.032-1.012C23.228,121.134,9.546,66.637,33.058,33.949c8.872-12.334,18.27-15.62,32.957-11.3,6.908,2.03,13.648,4.673,20.609,6.471,12.44,3.213,23.426.4,34.837-6.007,6.307-3.54,15.951-3.287,23.512-1.8,7.7,1.517,14.727,6.565,21.972,10.22,12.454,6.281,23.283,15.148,29.182,28.061a35.64,35.64,0,0,0,3.593,6.954,13.322,13.322,0,0,0,5.011,4.022,5.379,5.379,0,0,0,2.254.589,6.631,6.631,0,0,0,2.345-.6,204.193,204.193,0,0,0,18.974-8.6c5.918-3.063,11.987-5.925,16.983-10.437a9.173,9.173,0,0,0,3.167-4.613,3.614,3.614,0,0,0-.966-3.491c-1.776-1.821-5.343-2.538-7.466-3.34a72.7,72.7,0,0,0-14.151-4.07c-6.483-1.034-13.1-.285-19.665-.373-3.141-.043-10.523-1.909-8.657-6.6,1.642-4.126,10.292-3.749,13.6-3.784a114.589,114.589,0,0,1,35.892,5.4c14.391,8.965,26.447,7.992,40.119-.687,5.8-3.681,10.453-5.208,14.165-4.678.066-.022.128-.048.194-.069a21.819,21.819,0,0,1,4.008-.619c3.26-.36,6.487-.622,9.767-.681a123.011,123.011,0,0,0,13.1-1.032c5.36-.668,12.9-1.727,18.041,1.137a12.512,12.512,0,0,1,5.334,2.051,2.107,2.107,0,0,1,.9,2.165,2.089,2.089,0,0,1,.161,2.861c-4.475,5.341-11.678,5.675-18.129,5.592a92.052,92.052,0,0,0-22.852,2.357c2.028,9.062,1.165,21.135,9.4,26.369,7.689,4.891,22.321,3.119,31.1,2.949,4.2-.082,10.988,1.738,12.2,4.562,3.131,7.308,1.908,14.66-8.618,15.26a118.933,118.933,0,0,1-14.89-.062c-10.807-.744-20.222-.362-20.289,14.457-.072,16.082,4.783,22.352,19.766,22.754,7.6.2,15.212.192,22.819.151,2.273-.012,18.428-1.346,19.186,2.663C382.646,128.867,382.3,129.747,381.3,130.832Z"/><path class="cls-1" d="M152.507,36.551A29,29,0,0,0,118.532,52.6c-8.42,17.929,1.967,39.652,20.49,46.235,16.559,5.885,42.516-2.35,48.507-20.179q.35-1.038.59-2.06C192.782,56.925,168.694,40.751,152.507,36.551Z"/><path class="cls-1" d="M72.3,34.462c-26.713.248-40.787,11.287-40.214,31.544.53,18.745,19.737,34.905,41.506,34.923,19.164.016,33.583-13.551,33.571-31.584C107.152,49.262,92.177,34.278,72.3,34.462Z"/><path class="cls-1" d="M280.457,65.531c-3.808-4.088-11.987-7.485-17.49-4.835-3.032,1.46-6.072,4.315-8.738,6.393-2.993,2.332-5.888,4.789-8.707,7.33-2.935,2.646-5.786,5.384-8.583,8.175-2.2,2.2-5.3,4.114-6.392,7.17-1.475,4.114-.3,9.164,3.465,11.631,2.187,1.432,4.866,1.846,7.453,2.226,8.962,1.317,17.882,2.857,26.871,4.006,7.561.967,16.585,3.236,24.188,2.509a5.705,5.705,0,0,0,1.656-.41,4.045,4.045,0,0,0,2.01-1.7,5.881,5.881,0,0,0,.565-2.951c-.112-11.409-6.849-22.559-11.743-32.466A29.039,29.039,0,0,0,280.457,65.531Z"/></g></g></svg>