<svg xmlns="http://www.w3.org/2000/svg" viewBox="0 0 69 79"><defs><style>.cls-1{fill:#222221;}</style></defs><g id="Warstwa_2" data-name="Warstwa 2"><g id="Layer_1" data-name="Layer 1"><path class="cls-1" d="M36.239.066C40.574,0,44.876.033,49.178,0c.265,5.036,2.085,10.171,5.791,13.726C58.675,17.38,63.9,19.059,69,19.618V32.883a35.583,35.583,0,0,1-13.9-3.192,41.016,41.016,0,0,1-5.361-3.062c-.033,9.612.033,19.223-.066,28.8A25.051,25.051,0,0,1,45.207,68.4,24.689,24.689,0,0,1,25.649,78.966a24.231,24.231,0,0,1-13.5-3.39A24.811,24.811,0,0,1,.069,56.78c-.066-1.645-.1-3.291-.033-4.9a24.884,24.884,0,0,1,28.89-21.988c.066,4.872-.133,9.743-.133,14.615A11.637,11.637,0,0,0,18.8,45.721a11.439,11.439,0,0,0-4.5,5.76c-.7,1.679-.5,3.522-.464,5.3.8,5.4,6.023,9.941,11.583,9.448a11.129,11.129,0,0,0,9.166-5.3,7.565,7.565,0,0,0,1.357-3.489c.331-5.892.2-11.751.232-17.643.033-13.265-.033-26.5.066-39.73Z"/></g></g></svg>